<svg width="21" height="21" viewBox="0 0 21 21" fill="none" xmlns="http://www.w3.org/2000/svg">
<path d="M14.57 21.0001C14.8356 21.0017 15.0989 20.9503 15.3444 20.849C15.5899 20.7477 15.8128 20.5985 16 20.4101L18.71 17.7001C18.8963 17.5128 19.0008 17.2593 19.0008 16.9951C19.0008 16.731 18.8963 16.4775 18.71 16.2901L14.71 12.2901C14.5227 12.1039 14.2692 11.9993 14.005 11.9993C13.7408 11.9993 13.4874 12.1039 13.3 12.2901L11.7 13.8801C10.5923 13.5848 9.56634 13.041 8.70003 12.2901C7.95115 11.4224 7.40766 10.397 7.11003 9.29014L8.70003 7.69014C8.88628 7.50278 8.99083 7.24933 8.99083 6.98514C8.99083 6.72096 8.88628 6.4675 8.70003 6.28014L4.70003 2.28014C4.51267 2.09389 4.25922 1.98935 3.99503 1.98935C3.73085 1.98935 3.4774 2.09389 3.29003 2.28014L0.590033 5.00014C0.401665 5.18738 0.252479 5.41027 0.15118 5.65579C0.049881 5.90131 -0.00150075 6.16455 3.33667e-05 6.43014C0.0907563 10.2724 1.62611 13.9394 4.30003 16.7001C7.06075 19.3741 10.7277 20.9094 14.57 21.0001ZM4.00003 4.41014L6.59003 7.00014L5.30003 8.29014C5.17785 8.40459 5.08636 8.54788 5.03395 8.70687C4.98153 8.86586 4.96987 9.03547 5.00003 9.20014C5.3738 10.8705 6.16514 12.4188 7.30003 13.7001C8.58039 14.8365 10.1291 15.628 11.8 16.0001C11.9622 16.034 12.1303 16.0271 12.2891 15.98C12.4479 15.9329 12.5926 15.847 12.71 15.7301L14 14.4101L16.59 17.0001L14.59 19.0001C11.2738 18.9148 8.10954 17.5913 5.72003 15.2901C3.41295 12.8997 2.08564 9.73125 2.00003 6.41014L4.00003 4.41014ZM18 10.0001H20C20.026 8.81114 19.8109 7.6292 19.3678 6.52555C18.9247 5.4219 18.2627 4.41939 17.4217 3.57844C16.5808 2.73749 15.5783 2.07551 14.4746 1.63239C13.371 1.18928 12.189 0.97421 11 1.00014V3.00014C11.9279 2.96804 12.8525 3.12715 13.7163 3.46758C14.5801 3.808 15.3647 4.32246 16.0212 4.97898C16.6777 5.6355 17.1922 6.42005 17.5326 7.28385C17.873 8.14765 18.0321 9.07224 18 10.0001Z" fill="white"/>
</svg>
