<svg width="32" height="32" viewBox="0 0 32 32" fill="none" xmlns="http://www.w3.org/2000/svg">
<path d="M15.0362 22.06C13.4896 19.9953 11.6846 18.6842 9.72274 17.6262C9.538 17.5314 9.39576 17.1096 9.38268 16.8289C9.2478 14.4589 9.66307 12.1942 10.3906 10.0033C11.6225 6.29095 13.595 3.12462 15.8471 0.171589C15.8904 0.114708 15.9632 0.0881643 16.0923 0C19.7431 4.98175 22.909 10.1958 22.6082 17.1939C22.596 17.4944 22.4594 17.9457 22.2673 18.0528C20.3496 19.1212 18.4327 20.1849 16.9981 22.2174L16.0735 9.99479H15.9484C15.6493 13.9356 15.3501 17.8812 15.0362 22.06Z" fill="white"/>
<path d="M0 16.0015C4.18616 16.8897 8.15325 17.9629 11.6699 20.5623C13.4487 21.8781 14.8997 23.5476 15.3133 26.0759C15.6403 28.0904 15.2062 29.9485 14.2408 31.727C14.3364 26.9869 11.8326 24.5904 8.54318 22.8944C8.58487 22.8413 8.62492 22.7892 8.66743 22.7361C9.11703 23.3997 9.57562 24.0538 10.0146 24.7269C10.4699 25.4246 10.9514 26.1072 11.338 26.8552C11.7247 27.6031 11.9977 28.4051 12.4073 29.392C9.04346 29.1417 6.06548 28.3378 3.61722 25.8256C1.11991 23.2622 0.247688 19.8722 0 16.0015Z" fill="white"/>
<path d="M19.7253 29.6443C20.461 27.1235 21.7264 25.0825 23.5673 23.4282C22.5046 23.523 20.4332 25.0986 19.3566 26.568C18.2122 28.1294 17.8182 29.9761 17.7789 32.0001C17.0792 30.9573 16.7759 29.7609 16.6541 28.4924C16.431 26.1784 17.1315 24.2501 18.5261 22.6243C19.9713 20.9511 21.7403 19.7016 23.685 18.9792C26.2101 18.0199 28.8039 17.3041 31.3691 16.4936C31.5424 16.4386 31.7353 16.468 31.9143 16.4585C32.8446 23.0604 26.0278 30.4662 19.7253 29.6443Z" fill="white"/>
<path d="M10.0035 7.83838C10.0101 8.921 9.25882 9.80359 8.32529 9.81118C8.31221 9.81118 8.29913 9.81118 8.28687 9.81118C7.36888 9.78653 6.62908 8.93143 6.60374 7.86682C6.58821 6.788 7.37296 5.85042 8.2975 5.84473C9.23757 5.84189 10.0011 6.72353 10.0035 7.81374C10.0035 7.82227 10.0035 7.82985 10.0035 7.83838Z" fill="white"/>
<path d="M21.8798 7.79544C21.8912 6.70523 22.6629 5.83307 23.6021 5.84634C23.6078 5.84634 23.6136 5.84634 23.6201 5.84634C24.5643 5.87952 25.3065 6.7934 25.2779 7.88834C25.2501 8.96527 24.4858 9.81942 23.5563 9.81184C22.6245 9.8052 21.8732 8.92451 21.8789 7.84378C21.8789 7.82767 21.8789 7.81155 21.8798 7.79544Z" fill="white"/>
<path d="M29.5181 12.7656C30.038 12.7798 30.4491 13.2794 30.4369 13.8814C30.4369 13.8814 30.4369 13.8814 30.4369 13.8824C30.4303 14.4806 29.9963 14.9858 29.4952 14.9773C28.9785 14.9498 28.5723 14.4559 28.5723 13.8568C28.578 13.2548 28.999 12.7685 29.5181 12.7656Z" fill="white"/>
<path d="M25.8898 15.0127C26.1849 15.0203 26.4179 15.3037 26.4113 15.646C26.4081 15.9844 26.1686 16.2565 25.8759 16.2527C25.5841 16.2489 25.3495 15.9711 25.3536 15.6327C25.356 15.2905 25.5955 15.0146 25.8898 15.0127Z" fill="white"/>
<path d="M2.2849 14.9735C1.76909 14.9033 1.39552 14.3696 1.44129 13.7695C1.48544 13.1704 1.93994 12.7258 2.45739 12.777H2.4582C2.97238 12.8452 3.34922 13.3723 3.3108 13.9714C3.26584 14.5564 2.77537 15.0304 2.2849 14.9735Z" fill="white"/>
<path d="M5.21485 15.5991C4.95081 15.5631 4.75953 15.29 4.78323 14.9829C4.80612 14.6757 5.0391 14.4482 5.30395 14.4748C5.56799 14.5079 5.76172 14.7791 5.74047 15.0862C5.70777 15.3905 5.47889 15.6143 5.21485 15.5991Z" fill="white"/>
</svg>
