<svg width="80" height="80" viewBox="0 0 80 80" fill="none" xmlns="http://www.w3.org/2000/svg">
<path d="M37.5919 55.1503C33.7254 49.9884 29.2132 46.7107 24.3085 44.0658C23.8467 43.8288 23.4911 42.7741 23.4584 42.0726C23.1212 36.1475 24.1594 30.4856 25.9782 25.0084C29.0578 15.7274 33.989 7.81158 39.6191 0.428973C39.7274 0.286772 39.9093 0.220412 40.2322 0C49.3589 12.4545 57.2737 25.4896 56.5216 42.985C56.491 43.7363 56.1497 44.8645 55.6695 45.1323C50.8752 47.8033 46.083 50.4625 42.4965 55.5438L40.1852 24.9871H39.8725C39.1246 34.8393 38.3766 44.7033 37.5919 55.1503Z" fill="#79F449"/>
<path d="M0 40.0035C10.4652 42.2242 20.3828 44.9071 29.1743 51.4057C33.6211 54.6953 37.2485 58.8689 38.2826 65.1897C39.1 70.226 38.0149 74.8713 35.6014 79.3174C35.8405 67.4673 29.581 61.4759 21.3576 57.236C21.4618 57.1032 21.5619 56.9729 21.6682 56.8402C22.7922 58.4992 23.9386 60.1345 25.036 61.8172C26.1743 63.5615 27.378 65.268 28.3446 67.1379C29.3112 69.0079 29.9938 71.0129 31.0176 73.4801C22.6082 72.8544 15.1634 70.8446 9.04288 64.5641C2.79972 58.1555 0.619208 49.6803 0 40.0035Z" fill="#3CA813"/>
<path d="M49.3138 74.1105C51.1531 67.8086 54.3165 62.7059 58.9187 58.5703C56.262 58.8073 51.0836 62.7462 48.3922 66.4198C45.5311 70.3232 44.5461 74.94 44.448 80C42.6987 77.393 41.9406 74.402 41.6361 71.2309C41.0782 65.4457 42.8295 60.6251 46.3159 56.5605C49.9289 52.3774 54.3513 49.2537 59.213 47.4478C65.5256 45.0493 72.0099 43.2599 78.4227 41.2336C78.856 41.0961 79.3382 41.1696 79.7858 41.1459C82.1114 57.6507 65.0699 76.1653 49.3138 74.1105Z" fill="#3CA813"/>
<path d="M25.0094 19.5953C25.0257 22.3018 23.1477 24.5083 20.8139 24.5273C20.7812 24.5273 20.7485 24.5273 20.7178 24.5273C18.4229 24.4656 16.5734 22.3279 16.5101 19.6664C16.4713 16.9693 18.4331 14.6253 20.7444 14.6111C23.0945 14.604 25.0032 16.8081 25.0094 19.5336C25.0094 19.555 25.0094 19.5739 25.0094 19.5953Z" fill="#79F449"/>
<path d="M54.6987 19.4887C54.7273 16.7632 56.6564 14.5828 59.0045 14.616C59.0188 14.616 59.0331 14.616 59.0495 14.616C61.4098 14.6989 63.2654 16.9836 63.1938 19.721C63.1244 22.4133 61.2136 24.5487 58.8901 24.5298C56.5604 24.5132 54.6823 22.3114 54.6966 19.6096C54.6966 19.5693 54.6966 19.529 54.6987 19.4887Z" fill="#79F449"/>
<path d="M73.798 31.9147C75.0978 31.9502 76.1257 33.1992 76.095 34.7042C76.095 34.7042 76.095 34.7042 76.095 34.7066C76.0787 36.202 74.9935 37.4653 73.7408 37.4439C72.4493 37.3752 71.4336 36.1404 71.4336 34.6426C71.4479 33.1376 72.5004 31.9218 73.798 31.9147Z" fill="#79F449"/>
<path d="M64.7248 37.5316C65.4625 37.5506 66.0449 38.2592 66.0286 39.1148C66.0204 39.9609 65.4216 40.6411 64.69 40.6316C63.9605 40.6221 63.3739 39.9277 63.3842 39.0816C63.3903 38.226 63.9891 37.5364 64.7248 37.5316Z" fill="#79F449"/>
<path d="M5.71173 37.4343C4.42223 37.259 3.48831 35.9246 3.60275 34.4244C3.7131 32.9266 4.84934 31.815 6.14293 31.943H6.14497C7.43039 32.1137 8.37249 33.4314 8.27644 34.9292C8.16404 36.3915 6.93789 37.5765 5.71173 37.4343Z" fill="#79F449"/>
<path d="M13.0381 38.9987C12.378 38.9087 11.8998 38.2261 11.9591 37.4582C12.0163 36.6903 12.5987 36.1215 13.2608 36.1879C13.9209 36.2708 14.4052 36.9487 14.3521 37.7165C14.2704 38.4773 13.6982 39.0366 13.0381 38.9987Z" fill="#79F449"/>
</svg>
